# xmcd
#
# Track frame offsets: 
#        150
#        11798
#        36111
#
# Disc length: 689 seconds
#
# Revision: 0
# Processed by: cddbd v1.5.1PL0 Copyright (c) Steve Scherf et al.
# Submitted via: ExactAudioCopy v0.95a5
#
DISCID=1c02af03
DTITLE=Hillstomp - Premature Release
DYEAR=2005
DGENRE=Blues
TTITLE0=Momma Told Papa
TTITLE1=You Done Told Everybody
TTITLE2=Big Leg Woman
EXTD=
EXTT0=
EXTT1=
EXTT2=
PLAYORDER=
